# xmcd
#
# Track frame offsets: 
#        150
#        21221
#        39563
#        63751
#        85971
#        109186
#        138188
#        156531
#        173141
#        196326
#        209468
#        248088
#        272406
#
# Disc length: 4075 seconds
#
# Revision: 0
# Processed by: cddbd v1.5.2PL0 Copyright (c) Steve Scherf et al.
# Submitted via: ExactAudioCopy v0.99pb4
#
DISCID=b00fe90d
DTITLE=The Gerry Gillard Band - Times Like This
DYEAR=1998
DGENRE=Blues
TTITLE0=Drawbridge (to your Heart)
TTITLE1=Alibis
TTITLE2=Rejection
TTITLE3=The Blues Inside
TTITLE4=Don't Fall Down
TTITLE5=Susie
TTITLE6=Complications
TTITLE7=This Town
TTITLE8=Running Faster
TTITLE9=Everybody Sometimes
TTITLE10=Crystal Ball Blues
TTITLE11=Take Away the Fear
TTITLE12=Times Like This
EXTD=
EXTT0=
EXTT1=
EXTT2=
EXTT3=
EXTT4=
EXTT5=
EXTT6=
EXTT7=
EXTT8=
EXTT9=
EXTT10=
EXTT11=
EXTT12=
PLAYORDER=
